<svg width="32" height="32" viewBox="0 0 32 32" fill="none" xmlns="http://www.w3.org/2000/svg">
  <rect width="32" height="32" rx="4" fill="#4A154B"/>
  <path d="M8.26 19.52c0 1.54-1.26 2.8-2.8 2.8s-2.8-1.26-2.8-2.8c0-1.54 1.26-2.8 2.8-2.8h2.8v2.8zm1.42 0c0-1.54 1.26-2.8 2.8-2.8s2.8 1.26 2.8 2.8v7.04c0 1.54-1.26 2.8-2.8 2.8s-2.8-1.26-2.8-2.8v-7.04zm2.8-11.28c-1.54 0-2.8-1.26-2.8-2.8s1.26-2.8 2.8-2.8 2.8 1.26 2.8 2.8v2.8h-2.8zm0 1.42c1.54 0 2.8 1.26 2.8 2.8s-1.26 2.8-2.8 2.8h-7.04c-1.54 0-2.8-1.26-2.8-2.8s1.26-2.8 2.8-2.8h7.04zm11.28 2.8c0-1.54 1.26-2.8 2.8-2.8s2.8 1.26 2.8 2.8-1.26 2.8-2.8 2.8h-2.8v-2.8zm-1.42 0c0 1.54-1.26 2.8-2.8 2.8s-2.8-1.26-2.8-2.8v-7.04c0-1.54 1.26-2.8 2.8-2.8s2.8 1.26 2.8 2.8v7.04zm-2.8 11.28c1.54 0 2.8 0.63 2.8 2.8s-1.26 2.8-2.8 2.8-2.8-1.26-2.8-2.8v-2.8h2.8zm0-1.42c-1.54 0-2.8-1.26-2.8-2.8s1.26-2.8 2.8-2.8h7.04c1.54 0 2.8 1.26 2.8 2.8s-1.26 2.8-2.8 2.8h-7.04z" fill="white"/>
</svg> 