<svg width="48" height="48" viewBox="0 0 48 48" fill="none" xmlns="http://www.w3.org/2000/svg">
  <rect width="48" height="48" rx="6" fill="#4A154B"/>
  <path d="M12.39 29.28c0 2.31-1.89 4.2-4.2 4.2s-4.2-1.89-4.2-4.2c0-2.31 1.89-4.2 4.2-4.2h4.2v4.2zm2.13 0c0-2.31 1.89-4.2 4.2-4.2s4.2 1.89 4.2 4.2v10.56c0 2.31-1.89 4.2-4.2 4.2s-4.2-1.89-4.2-4.2v-10.56zm4.2-16.92c-2.31 0-4.2-1.89-4.2-4.2s1.89-4.2 4.2-4.2 4.2 1.89 4.2 4.2v4.2h-4.2zm0 2.13c2.31 0 4.2 1.89 4.2 4.2s-1.89 4.2-4.2 4.2h-10.56c-2.31 0-4.2-1.89-4.2-4.2s1.89-4.2 4.2-4.2h10.56zm16.92 4.2c0-2.31 1.89-4.2 4.2-4.2s4.2 1.89 4.2 4.2-1.89 4.2-4.2 4.2h-4.2v-4.2zm-2.13 0c0 2.31-1.89 4.2-4.2 4.2s-4.2-1.89-4.2-4.2v-10.56c0-2.31 1.89-4.2 4.2-4.2s4.2 1.89 4.2 4.2v10.56zm-4.2 16.92c2.31 0 4.2 1.89 4.2 4.2s-1.89 4.2-4.2 4.2-4.2-1.89-4.2-4.2v-4.2h4.2zm0-2.13c-2.31 0-4.2-1.89-4.2-4.2s1.89-4.2 4.2-4.2h10.56c2.31 0 4.2 1.89 4.2 4.2s-1.89 4.2-4.2 4.2h-10.56z" fill="white"/>
</svg> 