<svg width="16" height="16" viewBox="0 0 16 16" fill="none" xmlns="http://www.w3.org/2000/svg">
  <rect width="16" height="16" rx="2" fill="#4A154B"/>
  <path d="M4.13 9.76c0 0.77-0.63 1.4-1.4 1.4s-1.4-0.63-1.4-1.4c0-0.77 0.63-1.4 1.4-1.4h1.4v1.4zm0.71 0c0-0.77 0.63-1.4 1.4-1.4s1.4 0.63 1.4 1.4v3.52c0 0.77-0.63 1.4-1.4 1.4s-1.4-0.63-1.4-1.4v-3.52zm1.4-5.64c-0.77 0-1.4-0.63-1.4-1.4s0.63-1.4 1.4-1.4 1.4 0.63 1.4 1.4v1.4h-1.4zm0 0.71c0.77 0 1.4 0.63 1.4 1.4s-0.63 1.4-1.4 1.4h-3.52c-0.77 0-1.4-0.63-1.4-1.4s0.63-1.4 1.4-1.4h3.52zm5.64 1.4c0-0.77 0.63-1.4 1.4-1.4s1.4 0.63 1.4 1.4-0.63 1.4-1.4 1.4h-1.4v-1.4zm-0.71 0c0 0.77-0.63 1.4-1.4 1.4s-1.4-0.63-1.4-1.4v-3.52c0-0.77 0.63-1.4 1.4-1.4s1.4 0.63 1.4 1.4v3.52zm-1.4 5.64c0.77 0 1.4 0.63 1.4 1.4s-0.63 1.4-1.4 1.4-1.4-0.63-1.4-1.4v-1.4h1.4zm0-0.71c-0.77 0-1.4-0.63-1.4-1.4s0.63-1.4 1.4-1.4h3.52c0.77 0 1.4 0.63 1.4 1.4s-0.63 1.4-1.4 1.4h-3.52z" fill="white"/>
</svg> 