<svg width="128" height="128" viewBox="0 0 128 128" fill="none" xmlns="http://www.w3.org/2000/svg">
  <rect width="128" height="128" rx="16" fill="#4A154B"/>
  <path d="M33.04 78.08c0 6.16-5.04 11.2-11.2 11.2s-11.2-5.04-11.2-11.2c0-6.16 5.04-11.2 11.2-11.2h11.2v11.2zm5.68 0c0-6.16 5.04-11.2 11.2-11.2s11.2 5.04 11.2 11.2v28.16c0 6.16-5.04 11.2-11.2 11.2s-11.2-5.04-11.2-11.2v-28.16zm11.2-45.12c-6.16 0-11.2-5.04-11.2-11.2s5.04-11.2 11.2-11.2 11.2 5.04 11.2 11.2v11.2h-11.2zm0 5.68c6.16 0 11.2 5.04 11.2 11.2s-5.04 11.2-11.2 11.2h-28.16c-6.16 0-11.2-5.04-11.2-11.2s5.04-11.2 11.2-11.2h28.16zm45.12 11.2c0-6.16 5.04-11.2 11.2-11.2s11.2 5.04 11.2 11.2-5.04 11.2-11.2 11.2h-11.2v-11.2zm-5.68 0c0 6.16-5.04 11.2-11.2 11.2s-11.2-5.04-11.2-11.2v-28.16c0-6.16 5.04-11.2 11.2-11.2s11.2 5.04 11.2 11.2v28.16zm-11.2 45.12c6.16 0 11.2 5.04 11.2 11.2s-5.04 11.2-11.2 11.2-11.2-5.04-11.2-11.2v-11.2h11.2zm0-5.68c-6.16 0-11.2-5.04-11.2-11.2s5.04-11.2 11.2-11.2h28.16c6.16 0 11.2 5.04 11.2 11.2s-5.04 11.2-11.2 11.2h-28.16z" fill="white"/>
</svg> 